<?xml version="1.0" standalone="no"?>
<!DOCTYPE svg PUBLIC "-//W3C//DTD SVG 20010904//EN"
 "http://www.w3.org/TR/2001/REC-SVG-20010904/DTD/svg10.dtd">
<svg version="1.0" xmlns="http://www.w3.org/2000/svg"
 width="912.000000pt" height="912.000000pt" viewBox="0 0 912.000000 912.000000"
 preserveAspectRatio="xMidYMid meet">
<metadata>
Created by potrace 1.14, written by Peter Selinger 2001-2017
</metadata>
<g transform="translate(0.000000,912.000000) scale(0.100000,-0.100000)"
fill="#000000" stroke="none">
<path d="M1749 8875 c-3 -2 -20 -6 -38 -7 -18 -1 -35 -6 -37 -10 -3 -4 -13 -8
-23 -8 -38 0 -178 -80 -232 -132 -83 -82 -111 -123 -149 -223 -9 -25 -36 -30
-65 -14 -12 7 -158 4 -205 -5 -140 -26 -273 -123 -345 -251 -101 -180 -81
-374 55 -545 68 -87 71 -91 100 -126 14 -17 37 -46 52 -65 14 -19 36 -45 48
-59 l21 -25 -28 -24 c-45 -38 -163 -150 -163 -155 0 -3 -14 -20 -31 -38 -16
-18 -53 -67 -80 -108 -27 -41 -52 -79 -57 -85 -11 -15 -45 -90 -41 -91 2 0 -1
-7 -8 -15 -39 -47 -109 -308 -117 -433 -2 -36 -7 -69 -11 -75 -3 -6 -3 -11 2
-11 4 0 9 -42 10 -93 1 -89 5 -138 18 -222 7 -45 11 -70 31 -170 4 -16 8 -39
9 -50 2 -11 13 -56 25 -100 11 -44 23 -91 26 -105 2 -14 8 -36 13 -50 5 -14
21 -68 36 -120 28 -95 40 -130 56 -162 5 -10 9 -23 9 -30 0 -7 20 -64 44 -126
24 -61 41 -112 38 -112 -4 -1 -110 -3 -237 -5 -275 -5 -263 -4 -270 -16 -4 -5
-15 -9 -26 -9 -10 0 -19 -4 -19 -10 0 -5 -6 -10 -14 -10 -19 0 -91 -76 -118
-125 -22 -38 -23 -51 -25 -285 -2 -241 -1 -246 23 -295 42 -86 99 -136 188
-166 l51 -16 1 -1624 c1 -1356 4 -1667 18 -1749 1 -3 12 -32 26 -65 64 -160
183 -282 342 -354 135 -60 -161 -56 3898 -56 2049 0 3743 3 3765 7 267 43 501
281 532 541 3 29 6 196 6 372 0 324 -2 345 -38 381 -13 13 -71 45 -82 44 -5 0
-9 19 -9 42 -1 24 -3 48 -4 53 -1 6 -1 13 0 18 3 10 3 160 0 172 -7 29 4 44
45 59 30 12 51 29 66 53 l22 36 1 1034 1 1035 52 18 c85 30 150 84 179 147 8
18 15 36 15 40 0 5 5 13 10 19 4 6 8 116 8 245 0 226 -1 236 -24 284 -40 84
-123 154 -204 173 -14 3 -101 6 -193 6 l-167 1 5 22 c4 12 19 48 35 78 16 31
29 62 29 69 0 6 5 17 12 24 12 12 35 69 45 110 3 12 9 22 12 22 4 0 8 6 8 13
0 6 5 30 11 52 15 55 29 136 33 190 6 81 -22 260 -54 350 -17 47 -58 138 -66
145 -4 3 -12 17 -20 32 -8 15 -22 37 -33 47 -10 11 -18 24 -18 28 0 9 -127
143 -134 143 -3 0 -16 10 -29 23 -43 41 -122 97 -137 97 -5 0 -10 4 -10 8 0 5
-19 19 -42 32 -24 13 -45 26 -48 30 -5 6 -235 124 -235 120 0 -1 -18 5 -40 15
-68 29 -173 61 -230 71 -16 3 -41 9 -55 13 -14 5 -90 7 -170 6 -112 -1 -167
-7 -240 -24 -52 -13 -99 -26 -105 -30 -5 -4 -37 -18 -70 -31 -64 -25 -188 -97
-193 -111 -2 -5 -8 -9 -14 -9 -5 0 -22 -12 -37 -27 -16 -16 -43 -42 -62 -59
-43 -40 -81 -82 -149 -169 -30 -38 -57 -72 -60 -75 -3 -3 -21 -27 -39 -55 -19
-27 -38 -52 -41 -55 -3 -3 -32 -46 -65 -97 -56 -86 -75 -107 -75 -83 0 39
-130 265 -187 325 -7 8 -13 16 -13 19 0 14 -158 163 -220 206 -19 14 -37 27
-40 30 -5 6 -48 32 -116 70 -36 21 -173 82 -188 84 -6 1 -15 4 -21 8 -9 5 -56
17 -93 24 -22 4 -22 7 -6 54 37 106 27 199 -27 252 -31 30 -75 60 -98 67 -25
7 -340 4 -397 -4 l-52 -6 4 30 c2 17 6 43 9 59 31 149 6 218 -99 282 -44 26
-107 30 -311 16 -173 -11 -209 -21 -262 -73 -30 -29 -69 -104 -77 -147 -2 -12
-7 -33 -11 -47 -5 -22 -11 -65 -14 -106 -1 -13 -67 -13 -88 0 -8 5 -321 2
-350 -4 -7 -1 -13 -6 -13 -11 0 -4 -7 -8 -15 -8 -25 0 -93 -70 -107 -109 -19
-58 -17 -127 7 -224 6 -21 4 -27 -9 -27 -9 0 -57 -16 -108 -36 -118 -45 -120
-45 -125 -10 -5 35 -59 194 -72 210 -4 6 -11 23 -15 39 -3 15 -11 27 -16 27
-6 0 -10 6 -10 12 0 17 -92 168 -102 168 -4 0 -8 6 -8 14 0 8 -3 16 -7 18 -5
2 -25 24 -45 49 -45 56 -140 152 -185 186 l-33 25 52 67 c29 36 55 68 58 71 3
3 21 25 40 50 19 25 39 50 45 56 149 161 184 386 87 569 -15 28 -30 52 -34 53
-5 2 -8 8 -8 13 0 25 -153 149 -184 149 -9 0 -16 4 -16 8 0 9 -48 26 -110 38
-44 9 -184 9 -228 0 -26 -6 -33 -4 -38 11 -36 119 -162 264 -275 320 -116 56
-138 62 -270 69 -52 2 -98 2 -100 -1z"/>
</g>
</svg>
